STARTFONT 2.1
FONT -FontForge-Monoskop-Normal-R-Normal--13-100-96-96-C-100-WinRoman-0
SIZE 10 96 96
FONTBOUNDINGBOX 8 14 1 0
COMMENT "Generated by fontforge, http://fontforge.sourceforge.net"
COMMENT "Created with Fony 1.4.7"
STARTPROPERTIES 29
FOUNDRY "FontForge"
FAMILY_NAME "Monoskop"
WEIGHT_NAME "Normal"
SLANT "R"
SETWIDTH_NAME "Normal"
ADD_STYLE_NAME ""
PIXEL_SIZE 13
POINT_SIZE 100
RESOLUTION_X 96
RESOLUTION_Y 96
SPACING "C"
AVERAGE_WIDTH 100
CHARSET_REGISTRY "WinRoman"
CHARSET_ENCODING "0"
FONTNAME_REGISTRY ""
CHARSET_COLLECTIONS "WinRoman"
FONT_NAME "Monoskop"
FACE_NAME "Monoskop"
COPYRIGHT "Created with Fony 1.4.7"
FONT_VERSION "001.000"
FONT_ASCENT 13
FONT_DESCENT 0
UNDERLINE_POSITION -1
UNDERLINE_THICKNESS 1
RAW_ASCENT 1000
RAW_DESCENT 0
RELATIVE_WEIGHT 40
RELATIVE_SETWIDTH 50
FIGURE_WIDTH 10
ENDPROPERTIES
CHARS 11
STARTCHAR zero
ENCODING 48
SWIDTH 768 0
DWIDTH 10 0
BBX 8 14 1 0
BITMAP
3C
66
C3
C3
C3
C3
C3
C3
C3
C3
C3
C3
66
3C
ENDCHAR
STARTCHAR one
ENCODING 49
SWIDTH 768 0
DWIDTH 10 0
BBX 8 14 1 0
BITMAP
18
38
F8
18
18
18
18
18
18
18
18
18
18
FF
ENDCHAR
STARTCHAR two
ENCODING 50
SWIDTH 768 0
DWIDTH 10 0
BBX 8 14 1 0
BITMAP
3C
66
C3
C3
03
03
06
0C
18
30
60
C0
C0
FF
ENDCHAR
STARTCHAR three
ENCODING 51
SWIDTH 768 0
DWIDTH 10 0
BBX 8 14 1 0
BITMAP
3C
66
C3
C3
03
03
3E
03
03
03
C3
C3
66
3C
ENDCHAR
STARTCHAR four
ENCODING 52
SWIDTH 768 0
DWIDTH 10 0
BBX 8 14 1 0
BITMAP
18
18
30
30
30
60
60
6C
CC
CC
CC
FF
0C
0C
ENDCHAR
STARTCHAR five
ENCODING 53
SWIDTH 768 0
DWIDTH 10 0
BBX 8 14 1 0
BITMAP
FF
C0
C0
C0
C0
FC
06
03
03
03
C3
C3
66
3C
ENDCHAR
STARTCHAR six
ENCODING 54
SWIDTH 768 0
DWIDTH 10 0
BBX 8 14 1 0
BITMAP
0F
18
30
60
60
C0
FC
C6
C3
C3
C3
C3
66
3C
ENDCHAR
STARTCHAR seven
ENCODING 55
SWIDTH 768 0
DWIDTH 10 0
BBX 8 14 1 0
BITMAP
FF
03
03
03
06
06
06
0C
0C
0C
18
18
18
18
ENDCHAR
STARTCHAR eight
ENCODING 56
SWIDTH 768 0
DWIDTH 10 0
BBX 8 14 1 0
BITMAP
3C
66
C3
C3
C3
66
3C
66
C3
C3
C3
C3
66
3C
ENDCHAR
STARTCHAR nine
ENCODING 57
SWIDTH 768 0
DWIDTH 10 0
BBX 8 14 1 0
BITMAP
3C
66
C3
C3
C3
C3
63
3F
03
06
06
0C
18
F0
ENDCHAR
STARTCHAR colon
ENCODING 58
SWIDTH 768 0
DWIDTH 10 0
BBX 2 9 4 0
BITMAP
C0
C0
00
00
00
00
00
C0
C0
ENDCHAR
ENDFONT
